<?xml version="1.0" encoding="UTF-8" standalone="no"?><!DOCTYPE svg PUBLIC "-//W3C//DTD SVG 1.1//EN" "http://www.w3.org/Graphics/SVG/1.1/DTD/svg11.dtd"><svg width="100%" height="100%" viewBox="0 0 134 134" version="1.1" xmlns="http://www.w3.org/2000/svg" xmlns:xlink="http://www.w3.org/1999/xlink" xml:space="preserve" xmlns:serif="http://www.serif.com/" style="fill-rule:evenodd;clip-rule:evenodd;stroke-linejoin:round;stroke-miterlimit:2;"><path d="M128.763,35.618c0,-17.136 -13.912,-31.048 -31.048,-31.048l-62.097,-0c-17.136,-0 -31.048,13.912 -31.048,31.048l-0,62.097c-0,17.136 13.912,31.048 31.048,31.048l62.097,0c17.136,0 31.048,-13.912 31.048,-31.048l0,-62.097Z" style="fill:#40bf7c;"/><path d="M84.384,66.1c5.337,-4.152 8.417,-10.586 8.303,-17.348c-0,-12.849 -10.467,-21.821 -25.458,-21.821c-0.465,-0.027 -0.931,-0.041 -1.397,-0.041c-13.222,0 -24.102,10.88 -24.102,24.102c0,0.466 0.014,0.932 0.041,1.397l-0,76.374l7.273,0l0,-21.384c5.702,5.905 13.615,9.175 21.822,9.019c0.331,0.012 0.662,0.018 0.994,0.018c14.73,0 26.851,-12.121 26.851,-26.851c-0,-0.269 -0.004,-0.538 -0.012,-0.807c0.245,-9.732 -5.421,-18.7 -14.315,-22.658Zm-13.518,43.024c-0.391,0.022 -0.782,0.034 -1.173,0.034c-11.234,-0 -20.512,-9.167 -20.649,-20.4l0,-36.369c-0.027,-0.394 -0.041,-0.788 -0.041,-1.183c0,-9.349 7.694,-17.043 17.043,-17.043c0.394,0 0.789,0.014 1.183,0.042c11.045,-0 18.184,5.709 18.184,14.547c0.005,0.157 0.008,0.313 0.008,0.47c0,7.727 -6.358,14.085 -14.086,14.085c-0.156,0 -0.313,-0.002 -0.469,-0.007l-0,7.273c12.489,0 20.559,7.14 20.559,18.185c0.011,0.262 0.016,0.525 0.016,0.788c-0,10.753 -8.849,19.602 -19.603,19.602c-0.324,0 -0.648,-0.008 -0.972,-0.024Z" style="fill-rule:nonzero;"/></svg>